#Comment line ignore any data following # character 
#Hierarchical Translation and Rotation (.htr) file 
[Header]	
#Header keywords are followed by a single value 
FileType HTR		#Single word string
DataType HTRS		#Translation followed by rotation and scale data
FileVersion 1		#integer
NumSegments 64		#integer
NumFrames 3		#integer
DataFrameRate 30		#integer, data frame rate in this file
EulerRotationOrder ZYX
CalibrationUnits mm
RotationUnits Degrees
GlobalAxisofGravity Y
BoneLengthAxis Y
ScaleFactor 1.00
[SegmentNames&Hierarchy]
#CHILD	PARENT
Pinger_Root GLOBAL
Pelvis Pinger_Root
L_Hip Pelvis
R_Hip Pelvis
Rear_Leg01 Pelvis
Spine1 Pelvis
L_Leg01 L_Hip
L_Leg02 L_Leg01
L_Leg03 L_Leg02
L_Foot L_Leg03
L_Toe1_01 L_Foot
L_Toe2_01 L_Foot
L_Toe3_01 L_Foot
planeAlignerLeft L_Foot
L_Toe1_02 L_Toe1_01
L_Toe1_03 L_Toe1_02
L_Toe2_02 L_Toe2_01
L_Toe2_03 L_Toe2_02
L_Toe3_02 L_Toe3_01
L_Toe3_03 L_Toe3_02
planeLockWeightLeft planeAlignerLeft
R_Leg01 R_Hip
R_Leg02 R_Leg01
R_Leg03 R_Leg02
R_Foot R_Leg03
planeAlignerRight R_Foot
R_Toe1_01 R_Foot
R_Toe2_01 R_Foot
R_Toe3_01 R_Foot
planeLockWeightRight planeAlignerRight
R_Toe1_02 R_Toe1_01
R_Toe1_03 R_Toe1_02
R_Toe2_02 R_Toe2_01
R_Toe2_03 R_Toe2_02
R_Toe3_02 R_Toe3_01
R_Toe3_03 R_Toe3_02
Rear_Leg02 Rear_Leg01
Rear_Leg03 Rear_Leg02
Rear_Leg04 Rear_Leg03
Rear_Foot Rear_Leg04
planeAlignerCenter Rear_Foot
Rear_Toe1_01 Rear_Foot
Rear_Toe2_01 Rear_Foot
Rear_Toe3_01 Rear_Foot
planeLockWeightCenter planeAlignerCenter
Rear_Toe1_02 Rear_Toe1_01
Rear_Toe1_03 Rear_Toe1_02
Rear_Toe2_02 Rear_Toe2_01
Rear_Toe2_03 Rear_Toe2_02
Rear_Toe3_02 Rear_Toe3_01
Rear_Toe3_03 Rear_Toe3_02
Back_Bone Spine1
Head Spine1
Motor_Bone Back_Bone
Ping_Mechanism Back_Bone
BN_LookIK Head
bottomMouth Head
L_Mouth01 Head
L_mouthFront Head
mouthGun Head
R_Mouth01 Head
R_mouthFront Head
TopMouth Head
weapon_bone Head
[BasePosition]
#SegmentName Tx, Ty, Tz, Rx, Ry, Rz, BoneLength
Pinger_Root 0.000000 0.000000 0.000000 -90.000000 0.000000 0.000000 10.000000 
Pelvis 0.000000 0.000000 0.000000 0.000000 0.000000 0.000000 10.000000 
L_Hip 0.000000 0.000000 0.000000 0.000000 0.000000 0.000000 10.000000 
R_Hip 0.000000 0.000000 0.000000 0.000000 0.000000 0.000000 10.000000 
Rear_Leg01 0.000000 0.000000 0.000000 0.000000 0.000000 0.000000 10.000000 
Spine1 0.000000 0.000000 0.000000 0.000000 0.000000 0.000000 10.000000 
L_Leg01 0.000000 0.000000 0.000000 0.000000 0.000000 0.000000 10.000000 
L_Leg02 0.000000 0.000000 0.000000 0.000000 0.000000 0.000000 10.000000 
L_Leg03 0.000000 0.000000 0.000000 0.000000 0.000000 0.000000 10.000000 
L_Foot 0.000000 0.000000 0.000000 0.000000 0.000000 0.000000 10.000000 
L_Toe1_01 0.000000 0.000000 0.000000 0.000000 0.000000 0.000000 10.000000 
L_Toe2_01 0.000000 0.000000 0.000000 0.000000 0.000000 0.000000 10.000000 
L_Toe3_01 0.000000 0.000000 0.000000 0.000000 0.000000 0.000000 10.000000 
planeAlignerLeft 0.000000 0.000000 0.000000 0.000000 0.000000 0.000000 10.000000 
L_Toe1_02 0.000000 0.000000 0.000000 0.000000 0.000000 0.000000 10.000000 
L_Toe1_03 0.000000 0.000000 0.000000 0.000000 0.000000 0.000000 10.000000 
L_Toe2_02 0.000000 0.000000 0.000000 0.000000 0.000000 0.000000 10.000000 
L_Toe2_03 0.000000 0.000000 0.000000 0.000000 0.000000 0.000000 10.000000 
L_Toe3_02 0.000000 0.000000 0.000000 0.000000 0.000000 0.000000 10.000000 
L_Toe3_03 0.000000 0.000000 0.000000 0.000000 0.000000 0.000000 10.000000 
planeLockWeightLeft 0.000000 0.000000 0.000000 0.000000 0.000000 0.000000 10.000000 
R_Leg01 0.000000 0.000000 0.000000 0.000000 0.000000 0.000000 10.000000 
R_Leg02 0.000000 0.000000 0.000000 0.000000 0.000000 0.000000 10.000000 
R_Leg03 0.000000 0.000000 0.000000 0.000000 0.000000 0.000000 10.000000 
R_Foot 0.000000 0.000000 0.000000 0.000000 0.000000 0.000000 10.000000 
planeAlignerRight 0.000000 0.000000 0.000000 0.000000 0.000000 0.000000 10.000000 
R_Toe1_01 0.000000 0.000000 0.000000 0.000000 0.000000 0.000000 10.000000 
R_Toe2_01 0.000000 0.000000 0.000000 0.000000 0.000000 0.000000 10.000000 
R_Toe3_01 0.000000 0.000000 0.000000 0.000000 0.000000 0.000000 10.000000 
planeLockWeightRight 0.000000 0.000000 0.000000 0.000000 0.000000 0.000000 10.000000 
R_Toe1_02 0.000000 0.000000 0.000000 0.000000 0.000000 0.000000 10.000000 
R_Toe1_03 0.000000 0.000000 0.000000 0.000000 0.000000 0.000000 10.000000 
R_Toe2_02 0.000000 0.000000 0.000000 0.000000 0.000000 0.000000 10.000000 
R_Toe2_03 0.000000 0.000000 0.000000 0.000000 0.000000 0.000000 10.000000 
R_Toe3_02 0.000000 0.000000 0.000000 0.000000 0.000000 0.000000 10.000000 
R_Toe3_03 0.000000 0.000000 0.000000 0.000000 0.000000 0.000000 10.000000 
Rear_Leg02 0.000000 0.000000 0.000000 0.000000 0.000000 0.000000 10.000000 
Rear_Leg03 0.000000 0.000000 0.000000 0.000000 0.000000 0.000000 10.000000 
Rear_Leg04 0.000000 0.000000 0.000000 0.000000 0.000000 0.000000 10.000000 
Rear_Foot 0.000000 0.000000 0.000000 0.000000 0.000000 0.000000 10.000000 
planeAlignerCenter 0.000000 0.000000 0.000000 0.000000 0.000000 0.000000 10.000000 
Rear_Toe1_01 0.000000 0.000000 0.000000 0.000000 0.000000 0.000000 10.000000 
Rear_Toe2_01 0.000000 0.000000 0.000000 0.000000 0.000000 0.000000 10.000000 
Rear_Toe3_01 0.000000 0.000000 0.000000 0.000000 0.000000 0.000000 10.000000 
planeLockWeightCenter 0.000000 0.000000 0.000000 0.000000 0.000000 0.000000 10.000000 
Rear_Toe1_02 0.000000 0.000000 0.000000 0.000000 0.000000 0.000000 10.000000 
Rear_Toe1_03 0.000000 0.000000 0.000000 0.000000 0.000000 0.000000 10.000000 
Rear_Toe2_02 0.000000 0.000000 0.000000 0.000000 0.000000 0.000000 10.000000 
Rear_Toe2_03 0.000000 0.000000 0.000000 0.000000 0.000000 0.000000 10.000000 
Rear_Toe3_02 0.000000 0.000000 0.000000 0.000000 0.000000 0.000000 10.000000 
Rear_Toe3_03 0.000000 0.000000 0.000000 0.000000 0.000000 0.000000 10.000000 
Back_Bone 0.000000 0.000000 0.000000 0.000000 0.000000 0.000000 10.000000 
Head 0.000000 0.000000 0.000000 0.000000 0.000000 0.000000 10.000000 
Motor_Bone 0.000000 0.000000 0.000000 0.000000 0.000000 0.000000 10.000000 
Ping_Mechanism 0.000000 0.000000 0.000000 0.000000 0.000000 0.000000 10.000000 
BN_LookIK 0.000000 0.000000 0.000000 0.000000 0.000000 0.000000 10.000000 
bottomMouth 0.000000 0.000000 0.000000 0.000000 0.000000 0.000000 10.000000 
L_Mouth01 0.000000 0.000000 0.000000 0.000000 0.000000 0.000000 10.000000 
L_mouthFront 0.000000 0.000000 0.000000 0.000000 0.000000 0.000000 10.000000 
mouthGun 0.000000 0.000000 0.000000 0.000000 0.000000 0.000000 10.000000 
R_Mouth01 0.000000 0.000000 0.000000 0.000000 0.000000 0.000000 10.000000 
R_mouthFront 0.000000 0.000000 0.000000 0.000000 0.000000 0.000000 10.000000 
TopMouth 0.000000 0.000000 0.000000 0.000000 0.000000 0.000000 10.000000 
weapon_bone 0.000000 0.000000 0.000000 0.000000 0.000000 0.000000 10.000000 
#Beginning of Data. Separated by tabs
#Fr	Tx	Ty	Tz	Rx	Ry	Rz	SF
[Pinger_Root]
178 0.000000 0.000000 0.000000 -0.000075 -0.000000 -0.000020 0.000000
179 0.000000 0.000000 0.000000 -0.000075 -0.000000 -0.000020 0.000000
180 0.000000 0.000000 0.000000 -0.000075 -0.000000 -0.000020 0.000000
[Pelvis]
178 -1258.984985 12509.642578 -2128.213867 -106.816307 -81.506805 99.019409 12751.686523
179 -1271.174194 12648.044922 -2041.048340 -124.260544 -86.187820 116.675179 12874.580078
180 -1286.431274 12784.780273 -1951.453247 135.328735 -87.397293 -142.703094 12996.679688
[L_Hip]
178 5.766392 125.831482 872.656799 -178.253311 -81.787712 87.381248 881.701050
179 5.766392 125.831482 872.656799 -178.253311 -81.787712 87.381248 881.701050
180 5.766392 125.831482 872.656799 -178.253311 -81.787758 87.381340 881.701050
[R_Hip]
178 5.765438 125.836372 -872.654907 -1.746713 81.787666 87.381149 881.699829
179 5.765438 125.836372 -872.654907 -1.746713 81.787666 87.381149 881.699829
180 5.765438 125.836372 -872.654907 -1.746690 81.787712 87.381248 881.699829
[Rear_Leg01]
178 -192.298416 -925.602966 -0.001907 172.046249 -5.576698 130.172470 945.367432
179 -192.298416 -925.602966 -0.001907 171.904968 -6.757607 136.809250 945.367432
180 -192.298416 -925.602966 -0.001907 172.874573 -8.079074 147.536819 945.367432
[Spine1]
178 290.604584 5.007505 0.000477 10.371771 -2.340640 22.077618 290.647736
179 290.604584 5.007505 0.000477 10.464089 -2.619290 27.289536 290.647736
180 290.604584 5.007505 0.000477 10.530694 -2.905164 32.502129 290.647736
[L_Leg01]
178 761.932007 -0.002384 -0.069261 71.159828 -21.418154 -66.054741 761.932068
179 761.932007 -0.002384 -0.069261 73.303642 -12.396019 -70.087257 761.932068
180 761.932007 -0.002384 -0.069261 74.807068 -4.421597 -73.069221 761.932068
[L_Leg02]
178 1441.140503 -0.000954 -0.000715 -0.600767 0.231194 -115.454254 1441.140503
179 1441.140503 -0.000954 -0.000715 -1.237524 0.456054 -108.062309 1441.140503
180 1441.140503 -0.000954 -0.000715 -1.443016 0.584948 -101.377914 1441.140503
[L_Leg03]
178 1686.963989 -0.000715 -0.000954 0.020758 -0.007905 104.372894 1686.963989
179 1686.963989 -0.000715 -0.000954 0.029424 -0.010124 101.999985 1686.963989
180 1686.963989 -0.000715 -0.000954 0.043685 -0.010208 98.356827 1686.963989
[L_Foot]
178 3041.570068 -30.715107 11.297464 -14.486731 14.036884 47.305569 3041.746094
179 3041.570068 -30.715107 11.297464 -14.110776 14.207701 47.534824 3041.746094
180 3041.570068 -30.715107 11.297464 -13.536373 14.306458 48.316250 3041.746094
[L_Toe1_01]
178 -188.216690 -224.732346 -21.137953 85.548172 -4.247572 -165.364517 293.899567
179 -188.216690 -224.732346 -21.137953 85.464363 -4.137019 -165.184082 293.899567
180 -188.216690 -224.732346 -21.137953 85.342667 -3.860925 -164.866318 293.899567
[L_Toe2_01]
178 200.746536 -219.926590 148.838394 -79.389313 -14.820069 -44.609203 332.896027
179 200.746536 -219.926590 148.838394 -79.456589 -14.682740 -44.582108 332.896027
180 200.746536 -219.926590 148.838394 -79.523758 -14.545385 -44.555195 332.896027
[L_Toe3_01]
178 188.832520 -219.859131 -191.078659 -97.568016 16.139708 -45.549007 347.140900
179 188.832520 -219.859131 -191.078659 -97.541946 16.286537 -45.675774 347.140900
180 188.832520 -219.859131 -191.078659 -97.568924 16.667070 -45.816559 347.140900
[planeAlignerLeft]
178 0.812531 -811.448792 -0.314951 0.000000 -90.000000 -90.001900 811.449280
179 0.812531 -811.448792 -0.314951 0.000000 -90.000000 -90.001900 811.449280
180 0.812531 -811.448792 -0.314951 0.000000 -90.000000 -90.001900 811.449280
[L_Toe1_02]
178 413.761139 0.000477 0.000000 0.001413 -22.347534 0.001413 413.761139
179 413.761139 0.000477 0.000000 0.001412 -22.470215 0.001412 413.761139
180 413.761139 0.000477 0.000000 0.001411 -22.592896 0.001411 413.761139
[L_Toe1_03]
178 464.317322 0.000358 -0.000089 0.016069 81.623299 0.016069 464.317322
179 464.317322 0.000358 -0.000089 0.015096 81.082069 0.015096 464.317322
180 464.317322 0.000358 -0.000089 0.013798 80.241257 0.013798 464.317322
[L_Toe2_02]
178 342.235809 -0.000477 0.000238 0.001181 -77.557266 0.001181 342.235809
179 342.235809 -0.000477 0.000238 0.001180 -77.671494 0.001180 342.235809
180 342.235809 -0.000477 0.000238 0.001180 -77.785736 0.001180 342.235809
[L_Toe2_03]
178 420.210846 -0.000715 0.000000 -179.996109 78.318390 -179.992599 420.210846
179 420.210846 -0.000715 0.000000 -179.996353 77.789940 -179.992828 420.210846
180 420.210846 -0.000715 0.000000 -179.996750 76.865021 -179.993225 420.210846
[L_Toe3_02]
178 329.270111 0.000954 0.000000 0.001177 -81.697380 0.001177 329.270111
179 329.270111 0.000954 0.000000 0.001177 -81.764580 0.001177 329.270111
180 329.270111 0.000954 0.000000 0.001177 -81.831703 0.001177 329.270111
[L_Toe3_03]
178 439.137451 -0.001907 0.000954 -179.997787 73.389854 -179.994263 439.137451
179 439.137451 -0.001907 0.000954 -179.997864 73.094383 -179.994324 439.137451
180 439.137451 -0.001907 0.000954 -179.997925 72.798843 -179.994400 439.137451
[planeLockWeightLeft]
178 -0.000954 0.000238 -0.000305 -0.011826 -0.004376 0.005620 0.001029
179 -0.000954 0.000238 -0.000305 -0.011826 -0.004376 0.005620 0.001029
180 -0.000954 0.000238 -0.000305 -0.011826 -0.004376 0.005620 0.001029
[R_Leg01]
178 761.455627 -0.001907 -0.000358 95.650772 0.665398 72.858421 761.455688
179 761.455627 -0.001907 -0.000358 95.072273 9.053282 73.456978 761.455688
180 761.455627 -0.001907 -0.000358 94.644157 17.029797 73.551422 761.455688
[R_Leg02]
178 1441.140625 0.000000 -0.000238 0.672724 -0.249352 -104.289360 1441.140625
179 1441.140625 0.000000 -0.000238 0.926610 -0.377328 -97.803780 1441.140625
180 1441.140625 0.000000 -0.000238 1.156042 -0.521067 -91.987488 1441.140625
[R_Leg03]
178 1686.963989 0.000954 0.001431 -0.042218 0.013661 98.500648 1686.963989
179 1686.963989 0.000954 0.001431 -0.054762 0.014758 95.225815 1686.963989
180 1686.963989 0.000954 0.001431 -0.067348 0.015136 91.951042 1686.963989
[R_Foot]
178 3041.560059 -30.531288 -11.204481 21.374247 -21.094297 94.661995 3041.734131
179 3041.560059 -30.531288 -11.204481 21.754976 -20.471724 94.914803 3041.734131
180 3041.560059 -30.531288 -11.204481 22.401564 -19.690958 95.363533 3041.734131
[planeAlignerRight]
178 -0.635147 -812.270569 -0.364304 0.000000 -89.960434 -90.005180 812.270874
179 -0.635147 -812.270569 -0.364304 0.000000 -89.960434 -90.005180 812.270874
180 -0.635147 -812.270569 -0.364304 0.000000 -89.960434 -90.005180 812.270874
[R_Toe1_01]
178 -188.383347 -224.864899 21.052242 92.354805 2.115971 -168.179749 294.101532
179 -188.383347 -224.864899 21.052242 92.512047 1.946050 -164.872574 294.101532
180 -188.383347 -224.864899 21.052242 92.714127 1.699260 -160.355347 294.101532
[R_Toe2_01]
178 200.637817 -220.002121 -148.787384 -96.758049 14.014453 -40.781574 332.857574
179 200.637817 -220.002121 -148.787384 -97.487244 13.319419 -44.296333 332.857574
180 200.637817 -220.002121 -148.787384 -98.384735 12.376245 -48.844666 332.857574
[R_Toe3_01]
178 188.606735 -220.092957 191.126343 -76.930565 -17.572433 -42.930660 347.192566
179 188.606735 -220.092957 191.126343 -75.923073 -16.826118 -46.487274 347.192566
180 188.606735 -220.092957 191.126343 -74.681488 -15.789398 -51.092278 347.192566
[planeLockWeightRight]
178 -0.000477 0.000000 0.000000 -0.011823 -0.004379 -0.000027 0.000477
179 -0.000477 0.000000 0.000000 -0.011823 -0.004379 -0.000027 0.000477
180 -0.000477 0.000000 0.000000 -0.011823 -0.004379 -0.000027 0.000477
[R_Toe1_02]
178 413.762085 0.000477 -0.000119 0.001417 -21.801638 0.001417 413.762085
179 413.762085 0.000477 -0.000119 0.001411 -22.522329 0.001411 413.762085
180 413.762085 0.000477 -0.000119 0.001403 -23.590921 0.001403 413.762085
[R_Toe1_03]
178 464.317810 0.000000 0.001088 -0.012318 83.764359 -0.008816 464.317810
179 464.317810 0.000000 0.001088 0.014414 80.659592 0.014414 464.317810
180 464.317810 0.000000 0.001088 0.009534 75.858353 0.009534 464.317810
[R_Toe2_02]
178 342.234741 -0.000954 0.000238 -0.002335 -78.480034 -0.002335 342.234741
179 342.234741 -0.000954 0.000238 -0.002336 -77.804726 -0.002336 342.234741
180 342.234741 -0.000954 0.000238 -0.002339 -76.652740 -0.002339 342.234741
[R_Toe2_03]
178 420.210846 0.000715 -0.000268 -179.994400 72.817375 -179.997910 420.210846
179 420.210846 0.000715 -0.000268 -179.993469 76.185150 -179.996994 420.210846
180 420.210846 0.000715 -0.000268 -179.990875 81.049782 -179.994400 420.210846
[R_Toe3_02]
178 329.270355 -0.000477 -0.000954 0.001176 -82.044334 0.001176 329.270355
179 329.270355 -0.000477 -0.000954 0.001177 -81.325203 0.001177 329.270355
180 329.270355 -0.000477 -0.000954 0.001178 -80.156738 0.001178 329.270355
[R_Toe3_03]
178 439.137939 0.000238 0.001431 -179.998184 71.629723 -179.994629 439.137939
179 439.137939 0.000238 0.001431 -179.997375 74.971016 -179.993851 439.137939
180 439.137939 0.000238 0.001431 -179.995316 79.780464 -179.991791 439.137939
[Rear_Leg02]
178 1162.777710 -0.029802 0.005960 17.658163 -8.540980 -140.942947 1162.777710
179 1162.777710 -0.029802 0.005960 11.481073 -15.735977 -113.904427 1162.777710
180 1162.777710 -0.029802 0.005960 9.332846 -16.872814 -107.128235 1162.777710
[Rear_Leg03]
178 607.192505 -0.013351 -0.073195 0.009963 -0.006074 79.098656 607.192505
179 607.192505 -0.013351 -0.073195 0.010286 -0.005510 72.712814 607.192505
180 607.192505 -0.013351 -0.073195 0.010387 -0.005317 70.571976 607.192505
[Rear_Leg04]
178 995.874512 -0.020504 -0.011921 -0.044221 -0.014465 97.931198 995.874573
179 995.874512 -0.020504 -0.011921 -0.041656 -0.015291 77.048332 995.874573
180 995.874512 -0.020504 -0.011921 -0.040904 -0.017201 71.745644 995.874573
[Rear_Foot]
178 3096.176270 -0.067472 -0.041425 -35.291245 63.635303 82.553719 3096.176270
179 3096.176270 -0.067472 -0.041425 -37.184944 66.406952 75.754318 3096.176270
180 3096.176270 -0.067472 -0.041425 -44.364731 71.312721 64.255882 3096.176270
[planeAlignerCenter]
178 0.350077 0.966311 -838.790894 0.000009 0.000003 -179.999985 838.791565
179 0.350077 0.966311 -838.790894 0.000009 0.000003 -179.999985 838.791565
180 0.350077 0.966311 -838.790894 0.000009 0.000003 -179.999985 838.791565
[Rear_Toe1_01]
178 0.653352 83.966492 -371.173737 0.089718 39.772766 90.042343 380.553192
179 0.653352 83.966492 -371.173737 0.088554 39.895279 90.042351 380.553192
180 0.653352 83.966492 -371.173737 0.083208 33.461842 90.037842 380.553192
[Rear_Toe2_01]
178 178.200760 -294.826019 -362.060547 118.300049 81.807343 49.619732 499.765686
179 178.200760 -294.826019 -362.060547 120.951790 81.330414 52.293991 499.765686
180 178.200760 -294.826019 -362.060547 -4.318406 50.496262 -75.685944 499.765686
[Rear_Toe3_01]
178 -153.359680 -308.780914 -362.060852 -115.077255 80.685654 133.544083 499.952881
179 -153.359680 -308.780914 -362.060852 -117.654205 80.225616 130.980743 499.952881
180 -153.359680 -308.780914 -362.060852 1.431858 50.598717 -107.284889 499.952881
[planeLockWeightCenter]
178 -0.000062 0.000238 0.000000 -0.011814 -0.004373 -0.000015 0.000246
179 -0.000062 0.000238 0.000000 -0.011814 -0.004373 -0.000015 0.000246
180 -0.000062 0.000238 0.000000 -0.011814 -0.004373 -0.000015 0.000246
[Rear_Toe1_02]
178 379.707825 0.194073 0.000477 -0.002639 -33.387203 -0.002639 379.707855
179 379.707825 0.194073 0.000477 -0.002638 -33.449150 -0.002638 379.707855
180 379.707825 0.194073 0.000477 -0.002641 -33.170403 -0.002641 379.707855
[Rear_Toe1_03]
178 500.129700 0.165701 0.000119 0.016441 81.812996 0.016441 500.129761
179 500.129700 0.165701 0.000119 0.014364 80.627426 0.014364 500.129761
180 500.129700 0.165701 0.000119 -0.012393 85.341835 -0.015892 500.129761
[Rear_Toe2_02]
178 340.494507 0.000238 -0.000954 179.998825 -86.996445 179.998825 340.494507
179 340.494507 0.000238 -0.000954 179.998825 -86.963783 179.998825 340.494507
180 340.494507 0.000238 -0.000954 0.001262 -46.960739 0.001262 340.494507
[Rear_Toe2_03]
178 433.103577 0.000000 0.000238 -179.996338 53.447708 180.000000 433.103546
179 433.103577 0.000000 0.000238 -179.996338 53.355934 180.000000 433.103546
180 433.103577 0.000000 0.000238 -0.003308 41.048107 0.000534 433.103546
[Rear_Toe3_02]
178 340.494141 -0.000358 -0.000477 -179.994171 -87.048660 -179.994171 340.494171
179 340.494141 -0.000358 -0.000477 -179.994171 -87.018425 -179.994171 340.494171
180 340.494141 -0.000358 -0.000477 -0.002496 -47.133335 -0.002496 340.494171
[Rear_Toe3_03]
178 433.103577 0.001431 -0.000238 179.992554 53.799587 179.999893 433.103546
179 433.103577 0.001431 -0.000238 179.992554 53.721535 179.999908 433.103546
180 433.103577 0.001431 -0.000238 0.000527 41.238270 -0.003312 433.103546
[Back_Bone]
178 1312.175781 -701.934692 0.000954 0.125914 -0.001309 -90.945175 1488.125488
179 1312.175781 -701.934692 0.000954 0.132906 -0.001416 -90.803101 1488.125488
180 1312.175781 -701.934692 0.000954 0.139898 -0.001540 -90.661057 1488.125488
[Head]
178 1406.159424 809.709290 0.001431 -1.892527 2.458954 2.583438 1622.625488
179 1406.159424 809.709290 0.001431 -2.313423 2.383408 2.170285 1622.625488
180 1406.159424 809.709290 0.001431 -2.733733 2.304835 1.757722 1622.625488
[Motor_Bone]
178 1158.364380 -417.834747 0.000477 -3.495488 0.583988 -105.401489 1231.419434
179 1158.364380 -417.834747 0.000477 0.251917 -0.541827 -106.527916 1231.419434
180 1158.364380 -417.834747 0.000477 2.270552 -1.149516 -107.133400 1231.419434
[Ping_Mechanism]
178 1249.214111 -448.283508 -5.190709 0.000103 -0.000053 82.120995 1327.223022
179 1226.429321 -438.709961 -8.506481 0.000103 -0.000053 82.120995 1302.562012
180 1204.421997 -426.725708 -11.399208 0.000103 -0.000053 82.120995 1277.833008
[BN_LookIK]
178 193.241119 1380.371704 -0.002861 0.000000 89.965736 -31.038179 1393.832153
179 193.241119 1380.371704 -0.002861 0.000000 89.965736 -31.038179 1393.832153
180 193.241119 1380.371704 -0.002861 0.000000 89.965736 -31.038179 1393.832153
[bottomMouth]
178 -435.092926 615.759399 -0.000954 -0.000022 0.000016 73.527184 753.966492
179 -435.092926 615.759399 -0.000954 -0.000022 0.000016 73.527184 753.966492
180 -435.092926 615.759399 -0.000954 -0.000022 0.000016 73.527184 753.966492
[L_Mouth01]
178 554.440979 7.658243 838.222046 150.204178 23.759130 109.605339 1005.027161
179 554.440979 7.658243 838.222046 150.204178 23.759130 109.605339 1005.027161
180 554.440979 7.658243 838.222046 150.204178 23.759130 109.605339 1005.027161
[L_mouthFront]
178 551.629089 934.514771 339.150421 0.000081 2.804060 79.119301 1136.941284
179 551.629089 934.514771 339.150421 0.000081 2.804060 79.119301 1136.941284
180 551.629089 934.514771 339.150421 0.000081 2.804060 79.119301 1136.941284
[mouthGun]
178 55.332661 1627.420898 0.000000 0.000023 0.000009 -11.038128 1628.361328
179 55.332661 1627.420898 0.000000 0.000023 0.000009 -11.038128 1628.361328
180 55.332661 1627.420898 0.000000 0.000023 0.000009 -11.038128 1628.361328
[R_Mouth01]
178 554.442383 7.659197 -838.223938 29.795891 -23.759109 109.605331 1005.029541
179 554.442383 7.659197 -838.223938 29.795891 -23.759109 109.605331 1005.029541
180 554.442383 7.659197 -838.223938 29.795891 -23.759109 109.605331 1005.029541
[R_mouthFront]
178 551.629089 934.514282 -339.151367 0.000029 -2.803930 79.119133 1136.941162
179 551.629089 934.514282 -339.151367 0.000029 -2.803930 79.119133 1136.941162
180 551.629089 934.514282 -339.151367 0.000029 -2.803930 79.119133 1136.941162
[TopMouth]
178 461.269867 -56.106091 -0.008583 -0.000059 -0.000268 92.025169 464.669525
179 461.269867 -56.106091 -0.008583 -0.000059 -0.000268 92.025169 464.669525
180 461.269867 -56.106091 -0.008583 -0.000059 -0.000268 92.025169 464.669525
[weapon_bone]
178 -987.239868 1448.372803 0.001431 0.000000 89.965736 -31.038221 1752.833740
179 -987.239868 1448.372803 0.001431 0.000000 89.965736 -31.038221 1752.833740
180 -987.239868 1448.372803 0.001431 0.000000 89.965736 -31.038221 1752.833740
